<?xml version="1.0" encoding="utf-8"?>
<!-- Generator: Adobe Illustrator 24.0.2, SVG Export Plug-In . SVG Version: 6.00 Build 0)  -->
<svg version="1.1" id="レイヤー_1" xmlns="http://www.w3.org/2000/svg" xmlns:xlink="http://www.w3.org/1999/xlink" x="0px"
	 y="0px" viewBox="0 0 100 80.6" style="enable-background:new 0 0 100 80.6;" xml:space="preserve">
<style type="text/css">
	.st0{fill:#1DA1F2;}
</style>
<path class="st0" d="M31.4,80.6c37.7,0,58.4-31,58.4-57.9c0-0.9,0-1.8-0.1-2.6c4-2.9,7.5-6.4,10.2-10.5c-3.7,1.6-7.7,2.7-11.8,3.2
	c4.3-2.5,7.5-6.5,9-11.3c-4,2.4-8.4,4-13,4.9C81,3.1,76.9,1,72.5,0.3c-4.5-0.7-9,0-13,2.1s-7.1,5.5-9,9.5c-1.9,4.1-2.3,8.6-1.3,13
	c-8.2-0.4-16.1-2.5-23.4-6.2C18.5,15.2,12.1,10,7,3.7c-2.6,4.5-3.4,9.8-2.2,14.8s4.3,9.5,8.6,12.3c-3.4,0-6.5-0.9-9.4-2.5
	c0,0.1,0,0.2,0,0.3c0,4.7,1.6,9.2,4.6,12.9c3,3.6,7.2,6.1,11.8,7.1c-3,0.8-6.2,0.9-9.3,0.3c1.3,4,3.9,7.6,7.3,10.1s7.6,3.9,11.9,4
	c-7.3,5.7-16.2,8.7-25.5,8.7c-1.6,0-3.3-0.1-4.9-0.3C9.4,77.4,20.3,80.6,31.4,80.6"/>
</svg>
