<svg xmlns="http://www.w3.org/2000/svg" viewBox="0 0 542 130"><defs><style>.cls-1{fill:#b51329;}.cls-2{fill:#fff;}</style></defs><title>tekito2アセット 180</title><g id="Layer2" data-name="Layer2"><g id="Layer1" data-name="Layer1"><rect class="cls-1" x="76" width="390" height="130"/><path class="cls-1" d="M542,65,465.5,130V.05Z"/><path class="cls-1" d="M0,65,76.5.05V130Z"/><path class="cls-2" d="M151.72,59a53.16,53.16,0,0,0,7.39-8.93A62.21,62.21,0,0,0,167,59ZM150.81,64h17.33V60c.91.82,1.87,1.58,2.78,2.26a29.59,29.59,0,0,1,3.41-5.14c-4.61-2.69-9.46-7.82-12.77-12.53h-5.28a43.42,43.42,0,0,1-12.14,13.3,25.77,25.77,0,0,1,3.16,4.85,40.24,40.24,0,0,0,3.51-2.88Zm-20.4,8.44c-.39,4-1.15,8.31-2.55,11.14a28.41,28.41,0,0,1,4.37,2.06,44.42,44.42,0,0,0,2.88-12.38Zm10.41.87a56,56,0,0,1,2.79,8.93l4.22-1.54a53.19,53.19,0,0,0-3-8.64Zm20.88,3.5c1.06,1.44,2.16,3.12,3.22,4.85-2.93.19-5.9.43-8.69.62,1.25-2.83,2.59-6.28,3.79-9.6H172.6v-5H147.69v1.68a44.7,44.7,0,0,0-4.08-9.5l-3.79,1.58c.57,1.06,1.15,2.26,1.68,3.46l-4.61.19c3-3.89,6.33-8.74,9-12.91L141.21,50a88.16,88.16,0,0,1-4.27,7.77c-.48-.62-1.06-1.24-1.64-1.92,1.73-2.64,3.65-6.38,5.38-9.64l-4.94-1.83a60.33,60.33,0,0,1-3.51,8.35l-1.1-1-2.74,3.89a47.81,47.81,0,0,1,5.67,6.53c-.77,1.1-1.54,2.16-2.26,3.07l-3.46.15.48,4.94,7-.43V89.22h4.95V69.59l2.45-.19a23.81,23.81,0,0,1,.62,2.45l3.89-1.78v2.59h6.05a72.94,72.94,0,0,1-3.41,10c-1.78.09-3.41.19-4.85.28l.91,5.19c5.76-.58,13.63-1.2,21.07-1.92a32,32,0,0,1,1.44,3.26l4.8-2.59a56.41,56.41,0,0,0-7.53-12.38ZM202,75.26V64.7a54,54,0,0,0,7.63,10.56Zm-13.54,0A56.35,56.35,0,0,0,196,64.79V75.26Zm31.73-15.84V53.66H202V44.39h-6v9.27h-18v5.76h14.64c-3.7,7.39-9.75,14.3-16.51,18a28.28,28.28,0,0,1,4.17,4.75A42.37,42.37,0,0,0,187.72,76v5H196v8.12h6V81.06h8V75.59A38.65,38.65,0,0,0,217.77,82a24.28,24.28,0,0,1,4.41-5.18c-6.86-3.6-13-10.22-16.75-17.42ZM252.9,78.09c0-2.16-.14-5.67-.19-8.31,2.93-1.34,5.62-2.4,7.73-3.21a52.33,52.33,0,0,1,5.66-2L263.7,59c-1.72.82-3.4,1.63-5.23,2.45s-4,1.68-6.43,2.83c-1.06-2.45-3.46-3.69-6.34-3.69a14.74,14.74,0,0,0-5.37,1,28.63,28.63,0,0,0,2.73-4.8c5.09-.2,10.95-.58,15.51-1.25l.05-5.57a109.54,109.54,0,0,1-13.44,1.39c.57-1.92.91-3.55,1.15-4.7l-6.24-.53a27,27,0,0,1-1,5.42h-2.31a61.59,61.59,0,0,1-8.35-.52v5.56c2.59.24,6.1.34,8,.34h.57C235,61.14,231.59,65.37,226.6,70l5.09,3.79a59.59,59.59,0,0,1,4.41-5.23,11.79,11.79,0,0,1,7.44-3.27,3.72,3.72,0,0,1,3.32,1.63c-5.43,2.79-11.19,6.63-11.19,12.68s5.62,7.92,13.06,7.92a132.73,132.73,0,0,0,13.44-.77l.19-6.19a73.12,73.12,0,0,1-13.49,1.39c-4.65,0-6.91-.72-6.91-3.36,0-2.35,1.92-4.23,5.42-6.15,0,2.07-.09,4.28-.19,5.67Zm64-10a39.23,39.23,0,0,1-10.23-19.68L301,50.2c.34,1,.67,1.87,1,2.78,3.84,17.38-1.39,28.37-10.61,28.37-4.13,0-7.53-2.4-7.53-7.63,0-8,6.57-16.42,9.84-19A17.38,17.38,0,0,1,296,53.7l-1.78-5.28c-3.12,1.06-11.09,2.36-16.08,2.74a25.41,25.41,0,0,1-2.69.14l.82,6.2c1.1-.24,1.87-.44,2.78-.63,1.68-.33,4.32-.77,6.15-1-3.79,4.32-7.49,11.52-7.49,18.68,0,8.16,5.42,13.24,13.34,13.24,12.39,0,17.57-10.41,17.14-21.36a57.2,57.2,0,0,0,4.32,6.44Zm16.65-15.84c3.7,1,14.31,3.17,19.11,3.8l1.44-5.86a148.94,148.94,0,0,1-19-3.7Zm1.83,3.8L329,55.19A171.83,171.83,0,0,1,326.63,75l5.52,1.39a10.41,10.41,0,0,1,1.78-2.79c3-3.6,7.73-5.56,13.1-5.56,4.18,0,7.11,2.25,7.11,5.32,0,6.05-7.54,9.56-21.8,7.54l1.83,6.24c19.77,1.73,26.64-4.94,26.64-13.63,0-5.76-4.85-10.9-13.2-10.9a23.3,23.3,0,0,0-14,4.51C334,64.41,334.79,58.7,335.42,56.06Zm61.15-10.47a33.22,33.22,0,0,1-3.65,4c-3.22,3.16-9.74,8.44-13.44,11.47-4.75,3.93-5.14,6.57-.43,10.56,4.37,3.69,11.61,9.89,14.21,12.62,1.34,1.44,2.83,2.93,4.17,4.42L403,83.56c-4.7-4.56-13.87-11.81-17.42-14.83-2.59-2.21-2.64-2.74-.1-4.9,3.17-2.73,9.46-7.58,12.53-10.08,1.1-.86,2.69-2.11,4.18-3.21Z"/></g></g></svg>