<svg width="864" height="288" viewBox="0 0 864 288" fill="none" xmlns="http://www.w3.org/2000/svg">
<path d="M262.637 29.2125C262.637 30.1608 262.234 30.6532 261.411 30.6532C260.935 30.6532 260.203 30.0514 259.196 28.866C258.446 27.8813 257.696 26.9148 256.945 26.003C256.049 25.0547 255.042 24.0518 253.908 23.0305C250.724 28.0819 247.302 32.112 243.642 35.1027C241.098 37.2181 238.627 38.7681 236.194 39.7529C235.645 39.99 235.37 40.0447 235.37 39.8988C235.443 39.7894 235.571 39.6617 235.773 39.4976C238.92 37.4552 242.123 34.5192 245.38 30.6896C247.613 28.1731 249.772 25.073 251.895 21.4258C251.346 20.9516 249.9 19.9304 247.576 18.3621C245.307 16.8303 243.733 15.8456 242.855 15.3897C242.58 15.2256 242.452 15.0614 242.452 14.9338C242.452 14.7332 242.58 14.642 242.855 14.6785C243.751 14.8244 245.435 15.4444 247.942 16.575C250.175 17.5962 251.913 18.508 253.176 19.2922C256.433 13.6573 258.062 9.57242 258.062 7.00116C258.062 6.25348 257.879 5.66993 257.494 5.26874L256.982 4.50283C256.982 4.10164 257.165 3.88281 257.549 3.88281C258.062 3.88281 258.904 4.24753 260.075 4.95873C261.246 5.63346 261.813 6.21701 261.813 6.69115C261.813 6.96468 261.648 7.38411 261.301 7.96766C260.862 8.64239 260.532 9.26241 260.331 9.80949C259.032 13.2926 257.348 16.9033 255.298 20.6599C257.421 22.1187 259.032 23.4135 260.13 24.4894C261.795 26.313 262.637 27.8813 262.637 29.2125Z" fill="#333333" stroke="#333333" stroke-width="0.5" stroke-miterlimit="10"/>
<path d="M295.411 6.4741C295.411 6.34644 295.265 7.05765 295.009 8.62594C294.734 10.1942 294.606 11.5619 294.606 12.729V22.6129C294.606 23.0141 294.533 23.47 294.405 23.9441C294.13 24.4912 293.801 24.7647 293.435 24.7647C292.959 24.7647 292.538 24.3818 292.209 23.5794C291.934 22.9411 291.806 22.3758 291.806 21.8835C291.806 21.6464 291.898 20.7528 292.063 19.221C292.301 17.6162 292.429 16.3762 292.429 15.4826L292.374 8.46181C292.374 7.40413 292.154 6.51057 291.697 5.79937C291.221 5.05169 290.983 4.70521 290.983 4.77815C290.983 4.23108 291.404 3.95754 292.264 3.95754C292.648 3.95754 293.234 4.28579 294.057 4.92404C294.954 5.59877 295.411 6.10938 295.411 6.4741ZM312.576 5.1064L312.32 6.12761C312.247 6.80234 312.21 7.40413 312.21 7.91473L312.156 22.4488C312.156 26.4789 310.948 30.3632 308.514 34.1198C306.117 37.8034 303.061 40.3929 299.364 41.9065C298.779 42.18 298.486 42.2347 298.486 42.0524C298.486 41.943 298.65 41.7789 298.998 41.5418C306.043 36.1804 309.575 29.579 309.575 21.7376V10.0119C309.575 6.94823 309.319 5.17935 308.807 4.74168C308.056 4.12166 307.672 3.70224 307.672 3.46517C307.672 2.88162 308.075 2.58984 308.898 2.58984C309.246 2.58984 309.923 2.89985 310.948 3.51988C312.046 4.08519 312.576 4.61403 312.576 5.1064Z" fill="#333333" stroke="#333333" stroke-width="0.5" stroke-miterlimit="10"/>
<path d="M348.791 15.0257C348.791 15.3357 348.572 15.6822 348.133 16.1016C347.62 16.6852 347.236 17.1593 346.998 17.5423C345.461 20.3688 343.649 23.0678 341.545 25.639C339.038 28.8121 336.769 31.0004 334.719 32.1857C334.207 32.4957 333.95 32.4957 333.95 32.1857C333.95 32.1128 334.005 32.0216 334.097 31.8757C336.531 28.9762 338.818 25.8579 340.977 22.5024C341.417 21.7548 342.039 20.6424 342.826 19.1835C343.851 17.1046 344.363 15.7551 344.363 15.1351C344.363 14.8251 344.125 14.4604 343.649 14.0592C343.1 13.6215 342.826 13.2568 342.826 12.9833C342.826 12.6003 343.173 12.418 343.851 12.418C344.509 12.418 345.461 12.7097 346.724 13.2933C348.096 13.8586 348.791 14.4422 348.791 15.0257ZM372.874 28.7027C372.874 29.8333 372.471 30.3986 371.648 30.3986C371.026 30.3986 370.367 29.815 369.653 28.6662C368.793 27.262 367.951 25.8761 367.128 24.4719C364.456 20.3141 361.144 16.6122 357.209 13.3662C357.081 13.2021 357.063 13.0198 357.154 12.8556C357.282 12.7462 357.502 12.728 357.777 12.8009C360.558 13.8221 363.706 16.0469 367.237 19.457C370.989 23.2136 372.874 26.3137 372.874 28.7027Z" fill="#333333" stroke="#333333" stroke-width="0.5" stroke-miterlimit="10"/>
<path d="M398.145 6.4741C398.145 6.34644 397.999 7.05765 397.743 8.62594C397.468 10.1942 397.34 11.5619 397.34 12.729V22.6129C397.34 23.0141 397.267 23.47 397.139 23.9441C396.864 24.4912 396.535 24.7647 396.169 24.7647C395.693 24.7647 395.272 24.3818 394.943 23.5794C394.668 22.9411 394.54 22.3758 394.54 21.8835C394.54 21.6464 394.632 20.7528 394.796 19.221C395.034 17.6162 395.162 16.3762 395.162 15.4826L395.108 8.46181C395.108 7.40413 394.888 6.51057 394.43 5.79937C393.955 5.05169 393.717 4.70521 393.717 4.77815C393.717 4.23108 394.138 3.95754 394.998 3.95754C395.382 3.95754 395.968 4.28579 396.791 4.92404C397.688 5.59877 398.145 6.10938 398.145 6.4741ZM415.31 5.1064L415.054 6.12761C414.981 6.80234 414.944 7.40413 414.944 7.91473L414.89 22.4488C414.89 26.4789 413.682 30.3632 411.248 34.1198C408.851 37.8034 405.795 40.3929 402.098 41.9065C401.512 42.18 401.22 42.2347 401.22 42.0524C401.22 41.943 401.384 41.7789 401.732 41.5418C408.777 36.1804 412.309 29.579 412.309 21.7376V10.0119C412.309 6.94823 412.053 5.17935 411.541 4.74168C410.79 4.12166 410.406 3.70224 410.406 3.46517C410.406 2.88162 410.809 2.58984 411.632 2.58984C411.98 2.58984 412.657 2.89985 413.682 3.51988C414.78 4.08519 415.31 4.61403 415.31 5.1064Z" fill="#333333" stroke="#333333" stroke-width="0.5" stroke-miterlimit="10"/>
<path d="M445.414 10.0097C446.713 10.2832 447.848 10.4109 448.799 10.4109C449.476 10.4109 450.062 10.3744 450.538 10.3015C450.922 10.2285 451.288 10.1738 451.672 10.1556L451.617 8.82437C451.507 7.05548 450.958 5.76073 449.97 4.94011C449.732 4.8307 449.604 4.73952 449.604 4.6301C449.915 4.46598 450.172 4.32009 450.373 4.22891C450.684 4.22891 451.361 4.39304 452.422 4.73952C453.356 4.97659 453.813 5.41425 453.813 6.01603L453.923 9.955C456.723 9.64498 459.815 9.33497 463.164 9.02496C463.439 7.01901 463.585 5.68779 463.622 5.03129C463.512 3.86419 463 2.97063 462.085 2.31414C461.774 2.11355 461.627 1.93119 461.627 1.80353C461.975 1.63941 462.304 1.49352 462.652 1.40234C462.853 1.40234 463.585 1.62117 464.811 2.05884C466.184 2.44179 466.861 2.80651 466.861 3.18946C466.861 3.31712 466.769 3.62713 466.605 4.10126C466.367 4.5754 466.019 6.14369 465.58 8.80613C465.964 8.76966 466.312 8.73319 466.66 8.69672C467.337 8.62377 467.977 8.55083 468.563 8.44141C468.727 8.40494 468.91 8.3867 469.075 8.3867C469.276 8.3867 469.771 8.5873 470.557 9.00673C471.271 9.66322 471.637 10.1191 471.637 10.3927C471.637 10.7938 471.381 11.0127 470.868 11.0127C470.484 11.0127 469.99 10.958 469.386 10.8668C468.49 10.8303 467.721 10.8121 467.08 10.8121C466.495 10.8121 465.873 10.8303 465.232 10.8668C464.921 12.7086 464.573 14.9152 464.152 17.4682C466.678 17.2676 469.313 17.0852 472.003 16.9029C473.193 16.7935 474.291 16.6658 475.297 16.5017C475.535 16.4288 475.791 16.3923 476.066 16.3923C476.34 16.3923 476.926 16.6111 477.804 17.0488C478.664 17.6688 479.085 18.1065 479.085 18.38C479.085 18.9271 478.756 19.2006 478.115 19.2006C477.731 19.2006 477.218 19.1641 476.578 19.0912C475.718 19.0183 474.949 18.9818 474.272 18.9818C468.544 18.9818 460.419 19.5653 449.879 20.7142C447.719 20.9513 445.45 21.3342 443.053 21.8448C442.303 21.9542 441.754 21.9907 441.406 21.9907C441.058 21.9907 440.418 21.626 439.448 20.9148C438.789 20.5136 438.295 20.1306 437.966 19.7842C437.838 19.1277 437.764 18.7994 437.764 18.763C439.173 19.1641 440.381 19.383 441.406 19.383C442.577 19.383 443.547 19.31 444.334 19.1824C446.804 18.9453 449.421 18.7082 452.185 18.4712L451.819 12.2345C451.123 12.3804 450.428 12.5263 449.714 12.6904C449.275 12.7633 448.964 12.7998 448.781 12.7998C448.47 12.7998 447.848 12.4898 446.933 11.8698C446.347 11.4868 445.889 11.1768 445.542 10.9033C445.469 10.3562 445.414 10.0462 445.414 10.0097ZM449.22 24.2337C449.458 24.2337 449.952 24.3979 450.702 24.7443C450.94 24.8173 451.123 24.872 451.27 24.9449L461.334 24.179C462.835 24.1061 463.933 23.9237 464.628 23.6137C465.214 23.4861 465.69 23.4131 466.074 23.4131C466.458 23.4131 466.934 23.6137 467.52 24.0331C468.453 24.7443 468.91 25.2185 468.91 25.4191C468.91 25.7291 468.764 26.0026 468.453 26.2397C468.215 26.6226 468.087 27.2791 468.087 28.2274V38.6219C468.087 39.789 467.959 40.8102 467.684 41.6855C467.483 42.3055 467.227 42.6155 466.916 42.6155C466.33 42.6155 465.891 42.2508 465.58 41.5396C465.507 41.412 465.452 41.2479 465.433 41.0837C461.023 41.2114 456.522 41.4484 451.983 41.7402C451.819 42.8708 451.507 43.4362 451.05 43.4362C450.702 43.4362 450.355 43.1079 449.97 42.4697C449.623 41.8496 449.458 41.102 449.458 40.2266C449.458 39.9166 449.476 39.406 449.513 38.6948C449.623 37.7101 449.659 36.6889 449.659 35.6312V28.2639C449.659 27.2427 449.348 26.2762 448.726 25.3461C448.378 25.0726 448.213 24.8538 448.213 24.6896C448.47 24.4708 448.799 24.3431 449.22 24.2337ZM452.038 32.3305C456.668 31.9475 461.206 31.6922 465.653 31.5099V27.0056C465.653 26.0756 465.397 25.6197 464.884 25.6197C464.299 25.6197 460.035 25.9661 452.093 26.6409C452.056 27.0421 452.038 27.3703 452.038 27.6074V32.3305ZM452.038 40.1537C456.595 39.8437 461.06 39.6249 465.452 39.4972C465.58 39.096 465.653 38.4395 465.653 37.546V33.0964C461.206 33.2605 456.668 33.5341 452.038 33.917V40.0078C452.038 40.0808 452.038 40.1355 452.038 40.1537ZM461.957 17.687C462.341 15.0611 462.652 12.818 462.926 10.9762C460.419 11.1403 457.455 11.4503 453.996 11.9062L454.197 18.3071C456.668 18.1065 459.248 17.8876 461.957 17.687Z" fill="#333333" stroke="#333333" stroke-width="0.5" stroke-miterlimit="10"/>
<path d="M503.35 27.4076C503.35 27.4806 503.058 28.7024 502.472 31.0913C502.161 32.459 502.014 33.8267 502.014 35.1944C502.014 35.5773 502.088 35.9603 502.216 36.3797C502.326 36.7627 502.362 37.0727 502.362 37.3462C502.362 38.2945 501.941 38.7869 501.081 38.7869C499.873 38.7869 498.995 37.5103 498.409 34.9391C497.934 32.9878 497.696 30.6719 497.696 27.973C497.696 24.6358 498.098 20.6421 498.922 15.992C499.709 11.36 500.111 8.73405 500.111 8.16874C500.111 7.31165 499.91 6.4728 499.489 5.65218L498.977 4.37567C498.977 3.71917 499.233 3.40916 499.745 3.40916C500.258 3.40916 500.953 3.8833 501.85 4.8498C502.801 5.79807 503.295 6.60045 503.295 7.25694C503.295 6.87399 502.747 9.22642 501.649 14.2778C500.551 19.2927 500.002 23.7969 500.002 27.7906C500.002 29.6324 500.203 31.4013 500.624 33.1155C501.484 30.7813 502.399 28.8848 503.35 27.4076ZM532.172 12.673C532.172 13.1836 531.55 13.5666 530.324 13.8036C528.476 14.1137 526.682 14.4601 524.926 14.8249C524.926 16.7396 525.017 19.7303 525.182 23.7787C525.383 27.8818 525.493 29.9789 525.493 30.0701C525.493 31.6748 525.401 32.6414 525.237 32.9878C526.298 33.462 527.305 34.0455 528.274 34.7202C530.05 35.9238 530.946 36.9997 530.946 37.948C530.946 38.7686 530.635 39.1698 530.013 39.1698C529.665 39.1698 528.659 38.5498 526.975 37.328C525.292 36.0332 524.432 35.3767 524.358 35.3767C522.547 37.7656 519.692 38.951 515.776 38.951C514.239 38.951 512.866 38.7504 511.658 38.331C509.774 37.7109 508.84 36.6533 508.84 35.1579C508.84 33.8267 509.499 32.7872 510.835 32.0396C511.97 31.3831 513.488 31.0731 515.41 31.0731C517.606 31.0731 520.058 31.4378 522.748 32.149C522.858 31.9484 522.894 30.9089 522.894 29.0306C522.894 27.7724 522.84 25.5658 522.748 22.4292C522.62 19.2197 522.547 16.849 522.547 15.3172L518.96 15.9372C516.874 16.3202 515.629 16.5026 515.209 16.5026C514.495 16.5026 513.708 16.1378 512.848 15.4266C511.951 14.7154 511.512 14.0954 511.512 13.5848C511.512 13.0377 511.768 12.7642 512.281 12.7642C512.207 12.7642 512.573 13.0377 513.36 13.5848C514.147 14.1319 514.879 14.4054 515.575 14.4054C516.087 14.4054 517.405 14.1501 519.527 13.6395C520.515 13.4025 521.522 13.1289 522.51 12.8189L522.364 8.20521C522.291 6.9834 521.87 5.94396 521.083 5.08687C520.296 4.19331 519.893 3.79212 519.893 3.86506C519.893 3.31798 520.168 3.04445 520.717 3.04445C521.357 3.04445 522.272 3.31798 523.443 3.86506C524.669 4.41214 525.292 4.92275 525.292 5.39688C525.292 5.74336 525.2 6.39986 525.035 7.3846C524.962 8.27816 524.926 9.17172 524.926 10.1017C524.926 10.7582 524.944 11.433 524.981 12.1442C525.109 12.1442 525.932 11.9071 527.451 11.433C528.787 11.05 529.629 10.8677 529.976 10.8677C530.379 10.8677 530.855 11.05 531.367 11.433C531.898 11.8159 532.172 12.2354 532.172 12.673ZM521.851 34.2826C520.204 33.462 518.173 33.0608 515.739 33.0608C512.317 33.0608 510.597 33.699 510.597 34.9573C510.597 35.8873 511.311 36.5438 512.756 36.945C513.69 37.1821 514.623 37.3097 515.575 37.3097C518.502 37.2915 520.589 36.2885 521.851 34.2826ZM533.709 7.14753C533.709 8.04109 533.362 8.47875 532.685 8.47875C532.3 8.47875 531.898 8.16874 531.459 7.54872C531.074 6.96517 530.708 6.36338 530.324 5.7616C529.775 5.0504 529.043 4.19331 528.11 3.20857C527.945 3.04445 527.872 2.88032 527.909 2.75267C527.945 2.64325 528.11 2.62502 528.421 2.69796C529.354 2.9715 530.397 3.51858 531.605 4.3392C533.014 5.32394 533.709 6.25397 533.709 7.14753ZM537.003 4.32096C537.003 5.17805 536.674 5.59747 536.034 5.59747C535.686 5.59747 535.283 5.34217 534.807 4.83157C534.368 4.35743 533.892 3.84683 533.417 3.29975C532.758 2.58855 531.934 1.82264 530.891 1.00202C530.69 0.87437 530.58 0.728482 530.58 0.600831C530.617 0.473179 530.8 0.436708 531.148 0.491415C532.172 0.619067 533.344 1.03849 534.643 1.71322C536.217 2.60678 537.003 3.48211 537.003 4.32096Z" fill="#333333" stroke="#333333" stroke-width="0.5" stroke-miterlimit="10"/>
<path d="M573.328 7.85846C573.328 8.56966 570.803 9.59087 565.771 10.8856C564.087 16.3746 561.763 21.5172 558.78 26.295C557.755 27.9727 556.895 28.8115 556.218 28.8115C555.596 28.8115 555.303 28.4286 555.303 27.6262C555.303 27.1885 555.669 26.4044 556.383 25.2738C557.554 23.5596 558.213 22.5019 558.377 22.1007C560.775 17.7241 562.44 14.1499 563.355 11.3415C562.129 11.6515 560.518 11.7974 558.524 11.7974C557.902 11.7974 557.17 11.4327 556.31 10.7215C555.523 10.0103 555.12 9.46322 555.12 9.08027C555.12 8.6426 555.321 8.42377 555.742 8.42377C555.779 8.42377 556.2 8.6426 557.023 9.08027C557.81 9.51793 558.597 9.73676 559.384 9.73676C561.433 9.73676 563.007 9.49969 564.105 9.02556C564.618 6.83725 564.874 5.30543 564.874 4.41187C564.874 3.97421 564.691 3.51831 564.307 3.08065C563.959 2.57004 563.794 2.2965 563.794 2.26003C563.794 1.7859 564.05 1.54883 564.563 1.54883C565.075 1.54883 565.697 1.82237 566.411 2.36944C567.125 2.91652 567.491 3.44536 567.491 3.95597C567.491 4.22951 567.161 5.72486 566.521 8.46024C567.454 8.18671 568.589 7.76728 569.961 7.18373C571.132 6.74607 571.754 6.509 571.864 6.509C572.249 6.509 572.56 6.65489 572.834 6.91019C573.164 7.23844 573.328 7.54845 573.328 7.85846ZM586.577 37.0907C586.577 37.8019 586.266 38.1666 585.644 38.1666C585.369 38.1666 584.894 37.9477 584.198 37.5101C583.576 37.0359 582.917 36.5436 582.204 36.033C580.904 35.1759 579.788 34.6106 578.873 34.337C577.409 37.9477 574.335 39.7713 569.687 39.7713C568.515 39.7713 567.399 39.4978 566.301 38.9507C564.856 38.203 564.142 37.1818 564.142 35.8871C564.142 34.1547 565.057 32.8417 566.868 31.9481C568.314 31.2369 569.979 30.8722 571.901 30.8722C573.914 30.8722 575.634 31.1093 577.043 31.5834C577.043 30.4528 576.933 28.7568 576.732 26.4591C576.622 24.1796 576.586 22.5019 576.586 21.4442C576.586 19.4747 577.263 17.7241 578.635 16.2287C578.983 15.8276 579.184 15.6087 579.257 15.6087C579.294 15.6452 579.312 15.6817 579.312 15.7181C579.312 15.8823 579.239 16.174 579.111 16.5935C578.635 17.9976 578.397 19.0918 578.397 19.8759C578.397 21.3166 578.544 23.1949 578.855 25.5655C579.202 27.845 579.367 29.541 579.367 30.6351C579.367 31.2187 579.349 31.7475 579.312 32.2217C584.143 33.6441 586.577 35.2853 586.577 37.0907ZM576.659 33.5529C574.646 32.9329 572.761 32.6411 571.004 32.6776C569.742 32.714 568.607 32.9329 567.619 33.3341C566.393 33.9905 565.771 34.8112 565.771 35.8506C565.771 36.5618 566.265 37.1271 567.253 37.5466C568.003 37.9295 568.772 38.1119 569.559 38.1119C573.237 38.1119 575.597 36.5983 576.659 33.5529ZM588.48 13.5481C588.48 14.4599 588.096 14.934 587.346 14.934C586.87 14.8063 586.101 14.5875 585.04 14.314C584.637 14.2046 584.162 14.1681 583.649 14.1681C583.448 14.1681 583.32 14.0951 583.283 13.9675C583.173 13.8581 583.265 13.8034 583.539 13.7669C584.766 13.5298 585.388 13.2928 585.388 13.0557C585.388 12.1621 584.491 11.0497 582.716 9.68205C581.545 8.86144 580.502 8.20494 579.587 7.69434C579.038 7.4208 578.763 7.23844 578.763 7.12902C578.763 6.9649 579.111 6.91019 579.788 6.98313C581.764 7.29315 583.613 7.98611 585.278 9.08027C587.419 10.4115 588.48 11.9068 588.48 13.5481Z" fill="#333333" stroke="#333333" stroke-width="0.5" stroke-miterlimit="10"/>
<path d="M638.109 35.1395C636.059 36.8172 633.699 38.1849 631.027 39.2426C628.319 40.3003 625.83 40.8291 623.579 40.8291C619.187 40.8291 616.204 39.2791 614.594 36.179C613.496 33.9542 612.947 30.4347 612.947 25.5839C612.947 22.3379 613.24 18.636 613.825 14.4782C614.338 10.3204 614.594 7.82212 614.594 7.0015C614.594 6.56384 614.557 6.14441 614.484 5.77969C614.448 5.43321 614.283 5.05026 613.972 4.59436C613.661 4.12022 613.514 3.79198 613.514 3.62785C613.514 3.19019 613.697 2.95312 614.082 2.95312C614.631 2.95312 615.472 3.39079 616.607 4.28435C617.705 5.14144 618.254 5.88911 618.254 6.52737C618.254 6.80091 618.108 7.22033 617.796 7.74917C617.485 8.29625 617.284 8.75215 617.174 9.13511C616.076 15.3536 615.527 21.2255 615.527 26.7875C615.527 34.6654 618.016 38.6044 622.975 38.6044C628.081 38.6044 632.93 37.2367 637.505 34.5013C637.816 34.3372 638.054 34.246 638.219 34.246C638.42 34.246 638.512 34.3554 638.475 34.556C638.457 34.7931 638.347 34.9754 638.109 35.1395Z" fill="#333333" stroke="#333333" stroke-width="0.5" stroke-miterlimit="10"/>
<path d="M471.399 206.794C472.461 208.052 472.882 209.256 472.882 210.459C472.882 211.444 472.607 213.76 472.314 216.094C472.04 218.702 471.747 221.291 471.747 223.899C471.747 225.796 472.882 226.78 475.206 226.78C476.761 226.78 478.518 226.288 480.915 225.376C481.757 225.03 482.818 224.738 483.532 224.738C487.759 224.738 490.797 226.981 490.797 229.881C490.797 232.616 488.052 234.804 482.892 234.804C479.213 234.804 477.182 235.078 474.986 235.716C469.972 237.266 465.745 239.436 462.707 241.971C460.017 244.214 458.535 247.314 458.535 249.995C458.535 251.891 459.303 253.368 460.731 254.28C462.433 255.538 465.324 256.104 470.96 256.104C473.925 256.104 479.012 255.338 484.301 254.207C485.929 253.934 486.918 253.861 487.54 253.861C490.852 253.861 493.322 255.557 493.322 257.453C493.322 258.93 492.975 260.407 492.188 261.538C491.474 262.596 490.706 263.161 489.297 263.508C485.417 264.346 480.403 264.766 473.705 264.766C466.934 264.766 461.627 263.216 458.169 260.608C454.857 258.073 453.008 254.627 453.008 250.98C453.008 247.606 454.491 244.159 457.181 240.859C459.871 237.631 463.878 234.604 468.764 232.142C469.039 231.996 469.185 231.868 469.185 231.722C469.185 231.576 469.112 231.449 468.838 231.23C465.306 228.987 463.677 225.887 463.183 218.702C462.908 214.763 462.542 211.17 462.122 207.797C461.902 205.609 461.207 204.569 459.797 204.131C458.882 203.858 457.821 203.566 456.76 203.366C456.119 203.22 455.918 202.727 455.918 202.308C455.918 201.888 456.266 201.469 456.687 201.396C457.034 201.323 457.602 201.25 458.315 201.25C464.208 201.232 468.234 202.983 471.399 206.794Z" fill="#333333"/>
<path d="M45.914 94.5879L23.991 239.673L169.583 261.52L191.506 116.435L45.914 94.5879ZM89.0462 133.996L92.999 123.747C93.2369 123.182 93.5663 122.781 93.9688 122.58C94.3897 122.379 94.8289 122.379 95.3413 122.617C102.515 125.224 109.487 127.905 116.294 130.677C123.084 133.449 129.891 136.64 136.662 140.251C137.156 140.561 137.431 140.944 137.522 141.4C137.595 141.874 137.54 142.311 137.321 142.731L131.867 151.502C131.19 152.469 130.385 152.688 129.47 152.177C123.12 148.712 116.642 145.776 110.073 143.387C103.485 140.998 96.8236 138.573 90.0893 136.111C89.6501 135.965 89.3024 135.71 89.0645 135.327C88.8266 134.944 88.8083 134.506 89.0462 133.996ZM145.501 190.874C144.567 195.068 143.012 198.77 140.834 201.997C138.675 205.207 136.076 208.07 133.057 210.587C130.037 213.103 126.707 215.291 123.084 217.133C119.442 218.975 115.691 220.598 111.811 221.948C107.931 223.315 104.015 224.482 100.044 225.485C96.0733 226.488 92.2304 227.364 88.5339 228.093C87.5091 228.239 86.8503 227.838 86.5392 226.871L83.7576 215.729C83.41 214.453 83.8308 213.723 85.002 213.523C88.0032 212.903 90.9494 212.283 93.8774 211.663C96.8053 211.043 99.6417 210.35 102.442 209.584C105.223 208.818 107.931 207.851 110.548 206.684C113.165 205.517 115.764 204.022 118.326 202.198C120.814 200.375 123.065 198.168 125.042 195.615C127.036 193.062 128.427 190.399 129.232 187.628C130.037 184.856 130.056 182.084 129.287 179.294C128.519 176.522 126.67 174.024 123.706 171.835C121.18 169.866 117.96 168.37 114.08 167.367C110.182 166.365 105.955 165.744 101.417 165.526C96.8785 165.307 92.2304 165.434 87.4908 165.945C82.7512 166.456 78.3226 167.203 74.2052 168.17L68.2578 169.665C67.1599 169.884 66.4462 169.501 66.1351 168.553L62.8045 158.012C62.5117 156.9 62.9326 156.207 64.0306 155.915L69.8499 154.511C75.1019 153.162 80.6467 152.213 86.4843 151.648C92.3402 151.083 98.1595 151.01 103.924 151.411C109.707 151.83 115.196 152.779 120.394 154.274C125.591 155.769 130.092 157.994 133.935 160.93C138.803 164.632 142.262 169.082 144.348 174.315C146.471 179.549 146.837 185.075 145.501 190.874Z" fill="#B51329"/>
<path d="M273.763 272.807C269.975 272.917 267.596 272.917 266.736 272.917C264.357 273.026 256.25 273.245 253.103 273.245C229.203 273.245 215.79 264.401 215.79 248.572C215.79 234.877 228.343 225.503 246.606 225.503C255.793 225.503 264.009 227.765 271.164 232.287C268.566 227.765 264.137 219.248 258.629 208.471H216.028C214.289 208.471 212.898 208.58 210.629 209.018V203.42C212.459 203.748 214.417 203.967 216.028 203.967H256.47C254.731 200.739 251.822 194.703 249.973 190.709C249.223 189.196 248.455 187.792 247.155 186.296L254.622 182.959C255.262 185.111 257.11 189.433 262.307 200.52L263.936 203.967H288.915C290.544 203.967 292.703 203.748 294.332 203.42V209.018C292.502 208.69 290.544 208.471 288.915 208.471H266.205C273.122 222.367 274.861 225.613 280.04 234.129C281.339 236.39 282.089 237.466 282.638 238.323L276.471 242.208C272.244 235.424 259.068 229.917 247.155 229.917C232.223 229.917 222.506 236.919 222.506 247.806C222.506 259.878 233.211 266.242 253.542 266.242C262.417 266.242 270.414 265.695 273.763 264.838V272.807Z" fill="#B51329"/>
<path d="M362.114 194.357C356.221 196.8 350.732 198.843 345.699 200.466C332.231 205.353 325.167 207.851 324.526 207.961C322.001 208.781 317.829 207.067 311.991 202.818C308.917 200.739 307.288 199.208 307.105 198.241C306.556 195.341 306.995 193.263 308.423 191.986C311.625 194.721 313.766 196.326 314.864 196.782C317.426 197.967 321.104 197.931 325.899 196.709C335.415 193.919 345.26 190.217 355.435 185.622C352.58 181.154 350.384 177.561 348.865 174.844C343.558 176.85 338.398 178.82 333.42 180.771C328.424 182.722 325.075 183.525 323.337 183.178C320.244 182.759 316.841 180.735 313.144 177.087C310.655 174.553 310.234 172.31 311.863 170.322C314.169 171.89 316.218 173.002 318.03 173.659C320.208 174.589 323.502 174.297 327.912 172.802C334.518 170.559 339.953 168.371 344.235 166.219C343.21 164.413 341.929 161.988 340.337 158.943C338.581 154.949 337.3 152.688 336.531 152.159C333.841 150.335 330.382 149.806 326.192 150.609C326.21 148.949 327.034 147.126 328.662 145.138C329.449 143.989 331.188 143.497 333.896 143.643C337.904 143.551 341.307 143.916 344.144 144.719C349.67 145.667 352.214 147.527 351.738 150.299C351.079 152.104 351.207 153.745 352.177 155.222L354.831 161.222L363.798 155.532C365.024 154.967 366.305 153.727 367.604 151.812C368.391 150.663 369.653 150.262 371.392 150.591C376.918 151.539 379.627 153.381 379.462 156.061C379.444 157.739 377.943 159.526 374.96 161.423C373.204 162.754 371.099 163.994 368.629 165.125L359.479 169.848C361.51 173.477 363.688 177.051 366.048 180.625C370.385 178.802 373.149 177.452 374.32 176.558L383.287 170.869C384.458 169.994 385.172 169.355 385.428 168.972C386.489 165.763 387.514 164.067 388.484 163.885C390.039 163.265 392.766 163.575 396.7 164.833C399.921 165.909 401.971 167.021 402.867 168.17C404.258 170.249 403.673 172.364 401.056 174.516C400.214 175.355 398.091 176.577 394.724 178.218L372.343 189.944C373.734 192.023 376.552 195.323 380.761 199.864C383.689 202.982 387.13 205.171 391.046 206.429C391.43 206.702 392.693 207.122 394.815 207.724C396.993 208.654 398.402 209.894 399.043 211.426C399.921 214.27 399.884 216.769 398.97 218.939C397.78 221.51 395.218 222.148 391.302 220.89C385.904 218.902 381.786 217.516 378.95 216.714C371.923 215.036 364.749 214.234 357.393 214.289C351.701 214.362 346.724 215.474 342.46 217.608C336.952 220.325 334.17 224.173 334.116 229.187C334.006 233.892 336.128 237.156 340.502 238.998C344.876 240.84 349.506 241.478 354.41 240.877C359.387 240.603 365.39 239.637 372.435 237.977C376.571 236.865 379.773 236.099 382.042 235.661C384.293 235.242 386.288 236.026 388.026 238.032C390.076 239.983 390.991 242.135 390.771 244.524C390.552 246.894 388.539 248.609 384.714 249.666C369.708 253.496 356.661 254.462 345.589 252.548C339.349 251.381 334.372 248.992 330.657 245.363C326.064 240.567 324.508 235.023 325.99 228.731C328.26 221.291 334.902 215.711 345.9 211.954C352.818 209.638 361.748 208.125 372.655 207.395L362.114 194.357ZM374.997 145.886C373.46 144.846 373.167 144.226 374.137 144.044C375.692 143.424 378.73 143.515 383.232 144.336C389.161 145.557 393.004 148.165 394.761 152.159C395.328 153.399 395.255 154.748 394.523 156.207C394.12 157.63 393.114 158.487 391.503 158.778C389.234 159.198 386.965 157.812 384.677 154.566C382.006 151.065 378.785 148.165 374.997 145.886ZM382.829 136.895C382.372 136.312 382.646 135.929 383.616 135.746C387.752 134.634 391.888 134.361 396.005 134.908C402.19 135.746 405.777 137.898 406.783 141.381C407.662 144.226 406.857 146.214 404.405 147.345C402.263 148.42 400.177 147.983 398.128 146.032L396.298 144.372C392.272 140.798 387.788 138.3 382.829 136.895Z" fill="#B51329"/>
<path d="M813.731 167.968C822.99 174.405 827.803 184.016 826.595 193.772C824.839 207.868 809.119 217.989 784.232 220.779C777.113 221.6 764.505 222.074 761.613 221.709C760.717 221.6 760.314 221.326 760.351 220.998C760.424 220.451 760.534 220.451 763.059 220.086C767.396 219.721 776.363 217.661 781.414 216.147C789.758 213.576 798.615 208.798 804.563 203.674C810.894 198.258 814.463 192.276 815.268 185.73C816.586 175.08 808.607 166.436 793.876 164.85C789.648 171.542 786.025 176.174 779.199 183.778C780.297 185.821 780.7 186.331 783.39 189.249C784.305 190.143 784.762 190.89 784.708 191.438C784.506 192.988 782.2 194.282 780.096 194.027C778.76 193.863 773.197 192.276 771.257 191.474C764.999 196.343 763.242 197.692 759.93 199.881C752.39 205.151 746.681 207.376 742.326 206.847C737.751 206.282 734.548 201.157 735.244 195.614C736.122 188.502 741.282 182.502 753.982 174.022C749.536 165.251 748.072 155.95 749.408 145.282C749.993 140.505 750.286 139.192 750.945 139.265C751.274 139.301 751.384 139.429 751.805 142.31C753.342 151.847 757.075 159.981 763.608 168.442C770.928 164.941 777.772 162.752 785.348 161.768C787.416 157.847 788.422 155.276 788.752 152.613C789.045 150.279 787.69 148.419 785.348 148.145C784.342 148.018 783.335 148.018 782.749 148.164C782.402 148.237 782.164 148.31 781.944 148.291C781.725 148.273 781.615 148.145 781.652 147.908C781.963 145.355 787.013 142.93 790.801 143.404C795.925 144.042 799.146 148.145 798.505 153.252C798.231 155.476 797.279 158.503 795.632 161.914C804.288 162.971 808.936 164.777 813.731 167.968ZM757.093 178.8C750.817 184.672 748.419 188.556 747.834 193.316C747.578 195.322 748.657 196.689 750.67 196.927C753.122 197.237 758.649 193.735 765.2 187.334C762.107 184.927 759.417 182.01 757.093 178.8ZM766.17 172.253C767.78 174.715 769.189 176.119 772.758 179.256C779.016 172.472 780.901 170.12 783.866 165.305C778.925 166.053 772.977 168.351 766.17 172.253Z" fill="#B51329"/>
<path d="M534.771 129.619L556.053 287.998L714.986 266.789L693.703 108.41L534.771 129.619ZM627.861 251.982L604.511 244.505C613.13 220.324 615.783 202.307 602.553 195.487L597.026 246.128L573.877 240.165L583.045 192.569C579.532 192.733 575.725 193.08 571.352 193.827L569.979 175.591C576.018 174.625 581.49 174.059 586.559 173.987L590.383 154.292L606.926 155.915L604.657 175.719C634.449 182.94 639.408 211.917 627.861 251.982ZM670.444 223.898L629.691 169.464L642.098 159.817L688.268 205.243L670.444 223.898Z" fill="#B51329"/>
<path d="M0 21.4082H192.421" stroke="#333333" stroke-width="0.5" stroke-miterlimit="10"/>
<path d="M671.579 21.4082H864" stroke="#333333" stroke-width="0.5" stroke-miterlimit="10"/>
</svg>
