<svg xmlns="http://www.w3.org/2000/svg" viewBox="0 0 100 100"><defs><style>.cls-1{fill:#9fa0a0;}.cls-2{fill:#fff;stroke:#9fa0a0;stroke-miterlimit:10;}</style></defs><g id="レイヤー_1" data-name="レイヤー 1"><circle class="cls-1" cx="50" cy="50" r="50"/></g><g id="レイヤー_6" data-name="レイヤー 6"><path class="cls-2" d="M50.12,54c4.29,0,7.79-4.45,7.79-9.92s-3.5-9.91-7.79-9.91h-21c-4.3,0-7.79,4.44-7.79,9.91S24.77,54,29.07,54h7.66a15.71,15.71,0,0,0,.15,5H29.07c-7,0-12.79-6.69-12.79-14.92S22,29.15,29.07,29.15h21c7.05,0,12.79,6.69,12.79,14.91S57.17,59,50.12,59h-7s-.54-3.31,0-5Z"/></g><g id="レイヤー_4" data-name="レイヤー 4"><path class="cls-2" d="M70.93,41H63.38a17.49,17.49,0,0,1,.16,5h7.39c4.29,0,7.79,4.45,7.79,9.92s-3.5,9.91-7.79,9.91H49.88c-4.29,0-7.79-4.44-7.79-9.91S45.59,46,49.88,46H57a11.29,11.29,0,0,0-.22-5H49.88c-7.05,0-12.79,6.69-12.79,14.92s5.74,14.91,12.79,14.91H70.93c7,0,12.79-6.69,12.79-14.91S78,41,70.93,41Z"/></g></svg>