<svg width="100" height="100" viewBox="0 0 100 100" fill="none" xmlns="http://www.w3.org/2000/svg">
<rect width="100" height="100" rx="50" fill="#1DA1F2"/>
<path d="M41.4383 68.5906C58.8549 68.5906 68.3811 54.2853 68.3811 41.8798C68.3811 41.4735 68.3811 41.069 68.3534 40.6664C70.2066 39.3375 71.8063 37.692 73.0777 35.807C71.3494 36.5662 69.5161 37.0641 67.6389 37.2841C69.6157 36.1108 71.0951 34.2656 71.802 32.0916C69.9432 33.1851 67.9096 33.9558 65.7891 34.3703C64.3613 32.8652 62.4731 31.8686 60.4165 31.5347C58.3599 31.2008 56.2496 31.5481 54.4122 32.523C52.5748 33.4979 51.1127 35.0459 50.2522 36.9276C49.3916 38.8093 49.1806 40.9197 49.6518 42.9322C45.8871 42.7451 42.2041 41.7752 38.8419 40.0854C35.4798 38.3957 32.5137 36.0238 30.1361 33.1239C28.9252 35.1905 28.5544 37.6371 29.099 39.9653C29.6437 42.2935 31.0629 44.3284 33.0678 45.6557C31.5609 45.6114 30.0868 45.2084 28.77 44.4806C28.77 44.5191 28.77 44.5593 28.77 44.5996C28.7706 46.767 29.5274 48.8675 30.912 50.5448C32.2967 52.2221 34.2239 53.373 36.3669 53.8021C34.9728 54.1791 33.5101 54.2342 32.0912 53.9632C32.6963 55.8285 33.8743 57.4597 35.4606 58.6287C37.0468 59.7976 38.9619 60.4458 40.938 60.4826C37.5849 63.0951 33.4427 64.5134 29.178 64.5091C28.4246 64.5077 27.6719 64.4625 26.9238 64.3737C31.2542 67.1287 36.2929 68.5901 41.4383 68.5833" fill="white"/>
</svg>
